:SAMPLES-PER-SECOND 30
:FRAME-RANGE 1-564
:FULLY-SPECIFIED
:DEGREES
424
root  10.7329 38.191 -101.094 -159.802 -7.74706 -177.722
RightUpLeg  -38.1356 5.91025 -6.47228
RightLeg  23.3328 7.00472 3.09462
RightFoot  -5.23967 -0.837385 14.9593
RightToes  1.21801e-010 1.2921e-014 -6.02303e-014
Spine  20.1688 -2.4958 4.42005
Spine1  7.77482 0.141417 -3.47879
HEad  4.78731 7.21833 1.97689
LeftShoulder1  2.81355 -11.0394 -12.8149
LeftArm  -2.55404 -23.9743 -53.4001
LeftForeArm  19.094 0.678029 -12.1021
LeftHand  -0.0156807 2.53081 0.0798559
RightShoulder  2.52005 8.02649 15.5991
RightArm  -18.9324 36.8578 60.4251
RightForeArm  58.5648 -5.55408 2.54262
RightHand  0.00994874 -5.55759 -16.5564
LeftUpLeg  -34.3924 5.32563 3.21829
LeftLeg  22.7008 10.8318 5.24441
LeftFoot  -4.70109 0.256031 -3.92658
LeftToes  1.70735e-010 3.74918e-011 3.68705e-011
425
root  10.7783 38.4641 -101.387 -161.316 -6.5908 -177.827
RightUpLeg  -34.0562 6.88567 -7.96623
RightLeg  20.4251 6.81379 2.59929
RightFoot  -7.62151 -0.479483 13.1089
RightToes  1.21801e-010 1.2921e-014 -6.02303e-014
Spine  17.408 -2.4695 3.78774
Spine1  7.87298 -0.151307 -3.33284
HEad  8.69057 9.37556 1.44311
LeftShoulder1  2.79868 -10.2828 -13.9016
LeftArm  -1.48701 -19.145 -53.1116
LeftForeArm  20.1094 0.340177 -12.6414
LeftHand  -0.0185491 2.67924 0.175427
RightShoulder  2.4957 7.50182 16.53
RightArm  -20.3949 32.656 58.881
RightForeArm  60.772 -5.4812 2.5486
RightHand  0.0780715 -6.011 -17.224
LeftUpLeg  -30.4322 5.06027 3.54618
LeftLeg  19.6179 12.3446 5.07796
LeftFoot  -3.78304 0.296241 -4.14055
LeftToes  1.70735e-010 3.74918e-011 3.68705e-011
426
root  10.8555 38.6863 -101.729 -162.968 -5.3306 -178.638
RightUpLeg  -29.7328 5.90392 -9.53649
RightLeg  17.5434 4.55729 1.41442
RightFoot  -8.51974 -0.321615 10.6708
RightToes  1.21801e-010 1.2921e-014 -6.02303e-014
Spine  15.2933 -2.30479 2.40539
Spine1  7.91595 -0.594313 -2.7671
HEad  12.0375 11.0418 1.1071
LeftShoulder1  2.77371 -9.44726 -15.1711
LeftArm  -0.32879 -15.2316 -52.2311
LeftForeArm  20.8327 0.438856 -13.1262
LeftHand  -0.0232678 2.70084 0.381819
RightShoulder  2.35989 6.68208 17.106
RightArm  -22.2101 28.5817 57.8428
RightForeArm  62.0512 -5.36564 2.12404
RightHand  0.106887 -6.20251 -17.3114
LeftUpLeg  -26.002 4.76793 3.13211
LeftLeg  16.147 13.8757 4.61391
LeftFoot  -2.81321 0.338116 -4.30788
LeftToes  1.70735e-010 3.74918e-011 3.68705e-011
427
root  10.9827 38.8189 -102.084 -164.012 -4.05868 -179.552
RightUpLeg  -26.1684 3.71107 -11.2276
RightLeg  14.4312 1.84461 0.341982
RightFoot  -8.27322 -0.308433 9.39145
RightToes  1.21801e-010 1.2921e-014 -6.02303e-014
Spine  12.5704 -2.23827 1.35212
Spine1  8.19598 -0.870179 -2.76476
HEad  14.3021 12.1372 0.894126
LeftShoulder1  2.6535 -8.74526 -15.468
LeftArm  -0.230973 -11.7241 -52.155
LeftForeArm  22.4672 1.16852 -13.2584
LeftHand  -0.0301679 3.01724 0.616319
RightShoulder  2.28515 5.96985 18.1946
RightArm  -23.5577 24.9114 56.0143
RightForeArm  61.9322 -5.35174 2.01703
RightHand  0.118938 -6.29848 -17.0801
LeftUpLeg  -22.3593 4.56796 2.61478
LeftLeg  12.8804 15.3564 3.97651
LeftFoot  -1.95813 0.367572 -4.33532
LeftToes  1.70735e-010 3.74918e-011 3.68705e-011
428
root  11.153 38.888 -102.443 -164.715 -2.91339 -179.995
RightUpLeg  -23.3226 -0.258537 -11.9481
RightLeg  11.281 0.902625 -0.456743
RightFoot  -6.36637 -0.412201 8.47419
RightToes  1.21801e-010 1.2921e-014 -6.02303e-014
Spine  9.611 -2.28459 1.47918
Spine1  8.64806 -0.928332 -3.33484
HEad  15.748 12.5144 0.394225
LeftShoulder1  2.56969 -7.92338 -16.4146
LeftArm  -0.941584 -9.0199 -51.3495
LeftForeArm  24.7339 1.82137 -13.1475
LeftHand  -0.0386943 3.4382 0.791288
RightShoulder  2.20137 5.36164 19.0118
RightArm  -24.8025 21.1816 54.3836
RightForeArm  61.3353 -5.35143 1.8929
RightHand  0.11124 -6.2445 -17.0979
LeftUpLeg  -19.3438 4.51973 2.48563
LeftLeg  9.98477 16.5081 3.51529
LeftFoot  -1.46922 0.410712 -4.65296
LeftToes  1.70735e-010 3.74918e-011 3.68705e-011
